<svg width="784" height="900" viewBox="0 0 784 900" fill="none" xmlns="http://www.w3.org/2000/svg">
<path d="M391.999 1.16406C452.079 1.16406 526.317 28.6147 583.438 66.2347C591.492 60.5165 628.009 37.0178 684.159 37.0178C708.54 37.0178 720.046 42.4494 724.409 50.7699C726.576 54.9038 726.888 59.6015 726.297 64.3739C725.706 69.1427 724.2 74.0791 722.64 78.7425L722.64 78.7432C720.662 84.6424 716.147 97.8942 712.128 109.668C710.118 115.556 708.232 121.075 706.848 125.122C706.156 127.145 705.59 128.801 705.196 129.951L704.742 131.279L704.623 131.626L704.593 131.714L704.585 131.737L704.583 131.742L704.583 131.744C704.583 131.744 704.583 131.744 703.637 131.42L704.583 131.744L704.103 133.146L702.982 132.177L702.982 132.176L702.978 132.173L702.962 132.159L702.896 132.103C702.837 132.053 702.747 131.977 702.628 131.878C702.39 131.679 702.034 131.386 701.567 131.013C700.633 130.265 699.254 129.194 697.484 127.907C693.943 125.333 688.841 121.899 682.606 118.466C670.119 111.59 653.166 104.76 635.135 104.76C598.888 104.76 570.284 116.043 506.219 154.114C498.327 158.806 492.897 163.097 489.696 166.625C488.093 168.393 487.088 169.926 486.593 171.183C486.097 172.443 486.154 173.302 486.455 173.871C486.756 174.44 487.439 174.975 488.765 175.28C490.089 175.585 491.929 175.628 494.299 175.312C499.033 174.68 505.655 172.652 513.998 168.831C520.331 165.927 526.253 162.945 532.051 160.025C554.836 148.55 575.706 138.039 612.047 137.082C636.006 136.451 652.456 141.977 664.294 149.919C676.117 157.85 683.254 168.134 688.67 176.847C700.76 196.267 713.336 223.681 724.063 256.619L724.134 256.838L724.102 257.067C724.062 257.354 723.933 257.822 723.745 258.397C723.55 258.998 723.27 259.781 722.897 260.731C722.152 262.631 721.029 265.212 719.46 268.351C716.321 274.629 711.389 283.149 704.094 292.919C689.502 312.462 665.46 337.008 627.417 358.637L624.577 360.252L626.027 357.324C651.009 306.876 650.864 254.959 621.604 225.085C601.121 204.172 570.09 197.824 536.323 204.657C502.561 211.49 466.18 231.491 435.233 263.087L435.232 263.087C422.973 275.589 412.51 288.971 403.92 302.718C398.355 311.623 385.643 311.623 380.079 302.718C371.489 288.971 361.026 275.589 348.766 263.087L348.766 263.087C317.819 231.491 281.438 211.49 247.676 204.657C213.909 197.824 182.878 204.172 162.394 225.085C141.905 246.004 135.677 277.704 142.371 312.199C149.064 346.684 168.659 383.837 199.616 415.443C200.401 416.244 201.177 417.037 201.968 417.812C250.932 435.877 313.334 448.59 391.999 448.59C657.043 448.59 737.585 304.276 741.532 296.896L742.1 295.834L743.04 296.588C757.282 308.011 782.546 333.416 782.546 370.047C782.546 417.209 759.636 482.802 723.866 551.164C688.076 619.563 639.338 690.875 587.522 749.51C549.345 792.723 514.512 829.82 482.246 856.116C450.004 882.393 420.169 898.016 391.999 898.016C363.829 898.016 333.995 882.393 301.752 856.116C269.487 829.82 234.654 792.723 196.477 749.51C144.661 690.875 95.9223 619.563 60.1327 551.164C24.3625 482.802 1.45282 417.209 1.45282 370.047C1.45282 344.456 13.7893 324.343 26.0551 310.668C32.1918 303.826 38.3266 298.577 42.9282 295.038C45.2297 293.268 47.1496 291.924 48.4971 291.021C49.1709 290.569 49.7017 290.227 50.0658 289.998C50.1444 289.948 50.2152 289.904 50.278 289.865C62.5587 242.024 79.3734 202.477 95.3288 176.847C100.745 168.134 107.882 157.85 119.704 149.919C131.543 141.977 147.993 136.451 171.951 137.082C208.292 138.039 229.162 148.55 251.948 160.025C257.746 162.945 263.668 165.927 270.001 168.831C278.344 172.652 284.966 174.68 289.699 175.312C292.07 175.628 293.91 175.585 295.233 175.28C296.56 174.975 297.243 174.44 297.544 173.871C297.845 173.302 297.902 172.443 297.406 171.183C296.911 169.926 295.906 168.393 294.303 166.625C291.102 163.097 285.672 158.806 277.78 154.114C213.714 116.042 185.286 104.76 148.864 104.76C130.744 104.76 113.791 111.59 101.328 118.466C95.1041 121.899 90.0191 125.332 86.4921 127.906C84.7289 129.193 83.3562 130.264 82.4263 131.011C81.9614 131.385 81.6072 131.678 81.3704 131.876C81.252 131.975 81.1629 132.051 81.104 132.101L81.0384 132.158L81.0228 132.171L81.0192 132.174L81.0186 132.175L79.8973 133.15L79.4161 131.744L80.3622 131.42C79.4161 131.744 79.416 131.744 79.4159 131.744L79.4154 131.742L79.4135 131.737L79.4058 131.714L79.3755 131.626L79.2567 131.279L78.8024 129.951C78.4091 128.801 77.8427 127.145 77.1508 125.122C75.767 121.075 73.8807 115.556 71.8708 109.668C67.8515 97.8942 63.3366 84.6424 61.3586 78.7432L61.3584 78.7425C59.7985 74.0791 58.2928 69.1427 57.7018 64.3739C57.1105 59.6015 57.4226 54.9038 59.5902 50.7699C63.953 42.4494 75.4591 37.0178 99.8395 37.0178C155.989 37.0178 192.507 60.5165 200.561 66.2347C257.682 28.6146 331.919 1.16406 391.999 1.16406ZM324.829 320.333C324.829 342.832 306.96 361.105 284.874 361.105C283.209 361.105 281.59 360.968 280.005 360.769C278.419 360.968 276.8 361.105 275.135 361.105C253.049 361.105 235.181 342.832 235.181 320.333C235.181 297.835 253.049 279.562 275.135 279.562C276.8 279.562 278.419 279.699 280.005 279.898C281.59 279.699 283.209 279.562 284.874 279.562C306.96 279.562 324.829 297.835 324.829 320.333ZM503.994 360.769C502.409 360.968 500.789 361.105 499.125 361.105C477.038 361.105 459.17 342.832 459.17 320.333C459.17 297.835 477.038 279.562 499.125 279.562C500.789 279.562 502.409 279.699 503.994 279.898C505.579 279.699 507.199 279.562 508.863 279.562C530.95 279.562 548.818 297.835 548.818 320.333C548.818 342.832 530.95 361.105 508.863 361.105C507.199 361.105 505.579 360.968 503.994 360.769Z" stroke="url(#paint0_linear_820_12700)" stroke-width="2"/>
<defs>
<linearGradient id="paint0_linear_820_12700" x1="391.999" y1="2.16406" x2="391.999" y2="897.016" gradientUnits="userSpaceOnUse">
<stop stop-color="#B4B4B4"/>
<stop offset="1" stop-color="#D4D0D3" stop-opacity="0.17"/>
</linearGradient>
</defs>
</svg>
