<svg width="208" height="78" viewBox="0 0 208 78" fill="none" xmlns="http://www.w3.org/2000/svg">
<rect y="0.136719" width="207.1" height="77.7282" rx="12" fill="#F8F9FA"/>
<path fill-rule="evenodd" clip-rule="evenodd" d="M36.459 62.3563C37.633 62.3563 38.7589 61.8796 39.5891 61.0312C40.4193 60.1828 40.8857 59.032 40.8857 57.8321C40.8857 56.3532 40.1928 55.0403 39.1139 54.2119C38.3562 53.6302 38.2034 52.531 38.7727 51.7567C39.3419 50.9825 40.4176 50.8264 41.1753 51.4081C42.591 52.495 43.6386 54.0636 44.0829 55.8774C44.5618 55.7448 45.0236 55.5477 45.4558 55.2898C46.3218 54.7729 47.0377 54.0299 47.5302 53.1371C48.0227 52.2442 48.274 51.2335 48.2583 50.2087C48.2426 49.1839 47.9606 48.1817 47.4411 47.305C47.1504 46.8145 47.1128 46.2096 47.3405 45.6854C47.5682 45.1612 48.0323 44.7839 48.5834 44.6751C49.8737 44.4203 51.0371 43.7143 51.8736 42.6784C52.7102 41.6424 53.1677 40.3411 53.1677 38.9979C53.1677 37.6547 52.7102 36.3534 51.8736 35.3175C51.2637 34.5622 50.4802 33.9824 49.6003 33.6248C48.5577 34.9124 47.1885 35.8955 45.6312 36.4587C44.7379 36.7819 43.7573 36.3037 43.4411 35.3908C43.1249 34.4778 43.5928 33.4758 44.4862 33.1527C45.7196 32.7066 46.7636 31.8371 47.4401 30.6925L47.4408 30.6914C47.9598 29.8147 48.2414 28.8128 48.2568 27.7883C48.2723 26.7637 48.0209 25.7534 47.5285 24.8608C47.0361 23.9683 46.3203 23.2256 45.4546 22.7088C44.5889 22.192 43.6044 21.9197 42.6018 21.9198C42.1467 21.9198 41.7102 21.7351 41.3883 21.4062C41.0665 21.0774 40.8857 20.6313 40.8857 20.1662C40.8857 18.9663 40.4193 17.8156 39.5891 16.9672C38.7589 16.1187 37.633 15.6421 36.459 15.6421C35.285 15.6421 34.1591 16.1187 33.3289 16.9672C32.4987 17.8156 32.0323 18.9663 32.0323 20.1662L32.0323 57.8321C32.0323 59.032 32.4987 60.1828 33.3289 61.0312C34.1591 61.8796 35.285 62.3563 36.459 62.3563ZM51.2557 30.5341C52.5119 31.1148 53.6312 31.984 54.5206 33.0853C55.8645 34.7496 56.5996 36.8401 56.5996 38.9979C56.5996 41.1557 55.8645 43.2463 54.5206 44.9105C53.6314 46.0117 52.5123 46.8808 51.2563 47.4615C51.5286 48.3285 51.6757 49.2356 51.6898 50.154C51.7149 51.8006 51.3112 53.4244 50.5199 54.8591C49.7286 56.2937 48.5783 57.4875 47.1868 58.318C46.2472 58.8788 45.2206 59.2604 44.1567 59.449C43.8495 60.9764 43.111 62.3918 42.0159 63.511C40.5421 65.0171 38.5433 65.8633 36.459 65.8633C34.3747 65.8633 32.3758 65.0171 30.9021 63.511C29.4283 62.0048 28.6004 59.9621 28.6004 57.8321L28.6004 20.1662C28.6004 18.0363 29.4283 15.9936 30.9021 14.4874C32.3759 12.9813 34.3747 12.1351 36.459 12.1351C38.5433 12.1351 40.5421 12.9813 42.0159 14.4874C43.1111 15.6066 43.8496 17.0222 44.1568 18.5496C45.2202 18.7383 46.2465 19.1199 47.1857 19.6806C48.5768 20.511 49.7268 21.7044 50.518 23.1386C51.3092 24.5727 51.7131 26.196 51.6883 27.8422C51.6745 28.7603 51.5276 29.6672 51.2557 30.5341Z" fill="#41434A"/>
<mask id="mask0_820_12686" style="mask-type:alpha" maskUnits="userSpaceOnUse" x="0" y="12" width="48" height="54">
<path d="M16.5282 33.6261C15.2241 33.6261 14.167 32.5687 14.167 31.2645C14.167 29.9602 15.2241 28.9028 16.5282 28.9028C17.8323 28.9028 18.8894 29.9601 18.8894 31.2645C18.8894 32.5689 17.8323 33.6261 16.5282 33.6261ZM44.272 29.4932C43.5282 26.6462 42.5082 24.2952 41.5424 22.7754C40.8884 21.7446 39.8341 20.3677 36.9512 20.4421C34.2039 20.513 32.9324 21.4683 31.0317 22.322C28.9975 23.2348 28.5796 22.4637 30.504 21.3431C34.3881 19.0818 36.1236 18.404 38.349 18.404C40.5744 18.404 42.5011 20.0465 42.5011 20.0465C42.5011 20.0465 43.3558 17.5998 43.5955 16.8996C43.9733 15.7932 44.272 14.5001 41.3205 14.5001C37.8472 14.5001 35.6206 15.9608 35.2169 16.2478C31.7566 14.0066 27.2503 12.3711 23.6117 12.3711C19.9731 12.3711 15.4669 14.0066 12.0066 16.2478C11.6028 15.9608 9.37621 14.5001 5.90293 14.5001C2.95146 14.5001 3.25015 15.7932 3.62794 16.8996C3.8676 17.5998 4.72234 20.0465 4.72234 20.0465C4.72234 20.0465 6.65968 18.404 8.87446 18.404C11.0892 18.404 12.8353 19.0818 16.7195 21.3431C18.6438 22.4637 18.2259 23.2348 16.1917 22.322C14.291 21.4683 13.0195 20.513 10.2723 20.4421C7.38929 20.3677 6.33502 21.7446 5.68098 22.7754C4.95138 23.9237 4.19093 25.5469 3.54191 27.4994C3.56773 27.6798 4.77606 30.9272 9.37223 33.4874C7.85281 30.4817 7.85134 27.3673 9.65129 25.5669C12.1718 23.0459 17.2684 24.0567 21.0345 27.8235C21.7806 28.5691 22.4176 29.367 22.9406 30.187C23.254 30.6785 23.9693 30.6785 24.2829 30.187C24.8059 29.367 25.4428 28.5691 26.1889 27.8235C29.955 24.0567 35.0516 23.0459 37.5721 25.5669C40.0927 28.088 39.0833 33.1857 35.316 36.9537C35.2653 37.0045 35.2145 37.0553 35.1626 37.1049H35.1614C32.1848 38.1821 28.3921 38.9399 23.6117 38.9399C7.51856 38.9399 2.61869 30.3529 2.37194 29.9008C1.51248 30.576 0 32.0694 0 34.2166C0 39.7878 5.53104 49.754 11.8059 56.7103C16.4338 61.8422 20.24 65.5087 23.6117 65.5087C26.9835 65.5087 30.7897 61.8422 35.4176 56.7103C41.6924 49.754 47.2234 39.7878 47.2234 34.2166C47.2234 31.2172 44.272 29.4932 44.272 29.4932ZM33.0564 31.2645C33.0564 29.9601 31.9993 28.9028 30.6952 28.9028C29.3911 28.9028 28.3341 29.9601 28.3341 31.2645C28.3341 32.5689 29.3911 33.6261 30.6952 33.6261C31.9993 33.6261 33.0564 32.5687 33.0564 31.2645Z" fill="#D0D1DA"/>
</mask>
<g mask="url(#mask0_820_12686)">
<rect x="-18.8887" y="1" width="43.9886" height="67.166" fill="#41434A"/>
</g>
<path d="M149.191 24.176V33.0175C147.773 31.8176 146.28 31.2191 144.714 31.2191H143.752C140.829 31.2191 138.462 32.6169 136.649 35.4141C135.81 36.8993 135.39 38.5738 135.39 40.4333V40.6575C135.39 45.2662 137.118 48.4493 140.571 50.2096C141.754 50.6595 142.938 50.8852 144.123 50.8852C146.008 50.8852 147.662 50.2854 149.08 49.0869H149.153V50.3973H156.571L156.59 24.1758L149.191 24.176ZM149.23 42.4327C149.085 44.2923 148.037 45.4163 146.336 45.4163H146.136C144.817 45.4163 143.234 44.898 143.234 41.4702V40.3287C143.234 37.9886 144.181 36.6126 145.883 36.6126H146.289C147.853 36.6126 149.136 37.1244 149.25 38.9658C149.299 39.7564 149.342 40.9899 149.23 42.4327ZM80.398 24.176V34.178H72.9988V24.176H65.5996V50.3975H72.9988V40.3955H80.398V50.3975H87.7972V24.176H80.398ZM171.851 31.2934L168.817 41.0334L165.932 31.2934H157.717L165.432 50.0785C165.173 50.4163 164.871 50.7469 164.526 51.0716C163.884 51.6714 162.539 52.0399 160.492 52.1769V57.3272H162.38C163.513 57.2035 164.753 56.9035 166.097 56.4289C169.858 54.8678 172.566 51.7709 174.218 47.1391L179.915 31.2938H171.851L171.851 31.2934ZM110.161 35.3763C107.768 31.9806 104.636 30.2828 100.763 30.2828C98.7543 30.2828 96.8789 30.7312 95.1403 31.6312C91.4905 33.878 89.6653 36.8993 89.6653 40.6956V40.9956C89.6653 42.9307 90.1831 44.7291 91.2185 46.3904C93.5124 49.6856 96.6202 51.3338 100.542 51.3338C103.342 51.3338 105.808 50.4602 107.941 48.7115C110.359 46.4778 111.567 44.0054 111.567 41.2956V40.2456C111.567 38.7108 111.098 37.087 110.161 35.3763ZM103.28 43.7678C102.91 44.8163 102.071 45.3405 100.763 45.3405L99.7279 45.2662C98.297 44.9531 97.5823 43.6542 97.5823 41.3697V40.3955C97.5823 39.4841 97.7303 38.6599 98.0266 37.9246C98.458 36.8253 99.2721 36.2764 100.469 36.2764H100.69C102.712 36.2764 103.723 37.7747 103.723 40.7714C103.723 41.8692 103.576 42.868 103.28 43.7678ZM133.117 35.3763C130.724 31.9806 127.591 30.2828 123.72 30.2828C121.709 30.2828 119.834 30.7312 118.095 31.6312C114.446 33.878 112.62 36.8993 112.62 40.6956V40.9956C112.62 42.9307 113.138 44.7291 114.174 46.3904C116.468 49.6856 119.575 51.3338 123.497 51.3338C126.297 51.3338 128.763 50.4602 130.896 48.7115C133.314 46.4778 134.522 44.0054 134.522 41.2956V40.2456C134.522 38.7108 134.053 37.087 133.117 35.3763ZM126.235 43.7678C125.866 44.8163 125.026 45.3405 123.72 45.3405L122.683 45.2662C121.252 44.9531 120.537 43.6542 120.537 41.3697V40.3955C120.537 39.4841 120.685 38.6599 120.982 37.9246C121.413 36.8253 122.227 36.2764 123.424 36.2764H123.645C125.667 36.2764 126.679 37.7747 126.679 40.7714C126.679 41.8692 126.531 42.8682 126.235 43.7681L126.235 43.7678Z" fill="#41434A"/>
<path d="M207.099 20.6797V37.2506H202.602V20.6797H207.099Z" fill="#41434A"/>
<path d="M188.778 37.2506H183.924L189.392 20.6797H195.54L201.009 37.2506H196.155L192.531 25.2432H192.402L188.778 37.2506ZM187.872 30.7129H196.997V34.0788H187.872V30.7129Z" fill="#41434A"/>
</svg>
