<svg width="294" height="144" viewBox="0 0 294 144" fill="none" xmlns="http://www.w3.org/2000/svg">
<path d="M22.9766 39.5977H10.957V30.5996H22.9766C24.6146 30.5996 25.9427 30.3229 26.9609 29.7695C27.9792 29.2161 28.7207 28.4525 29.1855 27.4785C29.6725 26.4824 29.916 25.3646 29.916 24.125C29.916 22.7969 29.6725 21.5684 29.1855 20.4395C28.7207 19.3105 27.9792 18.403 26.9609 17.7168C25.9427 17.0085 24.6146 16.6543 22.9766 16.6543H15.3398V56H3.68555V7.65625H22.9766C26.8503 7.65625 30.1816 8.36458 32.9707 9.78125C35.7819 11.1979 37.9401 13.1458 39.4453 15.625C40.9505 18.082 41.7031 20.8932 41.7031 24.0586C41.7031 27.1797 40.9505 29.9023 39.4453 32.2266C37.9401 34.5508 35.7819 36.3659 32.9707 37.6719C30.1816 38.9557 26.8503 39.5977 22.9766 39.5977ZM46.6185 7.65625H65.6439C69.3627 7.65625 72.5944 8.20964 75.3392 9.31641C78.084 10.4232 80.1979 12.0612 81.681 14.2305C83.1862 16.3997 83.9388 19.0781 83.9388 22.2656C83.9388 25.0326 83.5072 27.3457 82.6439 29.2051C81.7806 31.0645 80.5742 32.6029 79.0248 33.8203C77.4974 35.0156 75.7155 36.0007 73.6791 36.7754L69.8607 38.9336H53.89L53.8236 29.9355H65.6439C67.127 29.9355 68.3555 29.6699 69.3295 29.1387C70.3034 28.6074 71.0339 27.8548 71.5209 26.8809C72.03 25.8848 72.2845 24.7005 72.2845 23.3281C72.2845 21.9336 72.03 20.7383 71.5209 19.7422C71.0117 18.7461 70.2591 17.9824 69.263 17.4512C68.2891 16.9199 67.0827 16.6543 65.6439 16.6543H58.2728V56H46.6185V7.65625ZM73.0814 56L62.39 34.6172L74.7416 34.5508L85.5658 55.502V56H73.0814ZM122.887 47.0352V56H97.1218V47.0352H122.887ZM101.272 7.65625V56H89.6179V7.65625H101.272ZM119.567 26.8477V35.5137H97.1218V26.8477H119.567ZM122.987 7.65625V16.6543H97.1218V7.65625H122.987ZM151.211 43.1504C151.211 42.3978 151.1 41.7227 150.879 41.125C150.658 40.5052 150.248 39.9297 149.65 39.3984C149.053 38.8672 148.19 38.3359 147.061 37.8047C145.954 37.2513 144.493 36.6758 142.678 36.0781C140.553 35.3698 138.505 34.5729 136.535 33.6875C134.565 32.7799 132.805 31.7285 131.256 30.5332C129.706 29.3158 128.478 27.8991 127.57 26.2832C126.663 24.6452 126.209 22.7415 126.209 20.5723C126.209 18.4915 126.674 16.6211 127.604 14.9609C128.533 13.2786 129.828 11.8509 131.488 10.6777C133.171 9.48242 135.141 8.57487 137.399 7.95508C139.656 7.31315 142.124 6.99219 144.803 6.99219C148.344 6.99219 151.466 7.61198 154.166 8.85156C156.889 10.069 159.014 11.8066 160.541 14.0645C162.091 16.3001 162.865 18.9453 162.865 22H151.277C151.277 20.7826 151.023 19.709 150.514 18.7793C150.027 17.8496 149.285 17.1191 148.289 16.5879C147.293 16.0566 146.042 15.791 144.537 15.791C143.076 15.791 141.848 16.0124 140.852 16.4551C139.856 16.8978 139.103 17.4954 138.594 18.248C138.085 18.9785 137.83 19.7865 137.83 20.6719C137.83 21.4023 138.029 22.0664 138.428 22.6641C138.848 23.2396 139.435 23.7819 140.188 24.291C140.962 24.8001 141.892 25.2871 142.977 25.752C144.083 26.2168 145.323 26.6706 146.695 27.1133C149.263 27.9323 151.543 28.8509 153.535 29.8691C155.55 30.8652 157.243 32.0052 158.615 33.2891C160.01 34.5508 161.061 35.9896 161.77 37.6055C162.5 39.2214 162.865 41.0475 162.865 43.084C162.865 45.2533 162.445 47.179 161.604 48.8613C160.762 50.5436 159.556 51.9714 157.984 53.1445C156.413 54.2956 154.531 55.1699 152.34 55.7676C150.149 56.3652 147.703 56.6641 145.002 56.6641C142.523 56.6641 140.077 56.3542 137.664 55.7344C135.274 55.0924 133.104 54.1185 131.156 52.8125C129.208 51.4844 127.648 49.791 126.475 47.7324C125.324 45.6517 124.748 43.1836 124.748 40.3281H136.436C136.436 41.7448 136.624 42.9401 137 43.9141C137.376 44.888 137.93 45.6738 138.66 46.2715C139.391 46.847 140.287 47.2676 141.35 47.5332C142.412 47.7767 143.63 47.8984 145.002 47.8984C146.485 47.8984 147.68 47.6882 148.588 47.2676C149.496 46.8249 150.16 46.2493 150.58 45.541C151.001 44.8105 151.211 44.0137 151.211 43.1504ZM192.417 43.1504C192.417 42.3978 192.307 41.7227 192.085 41.125C191.864 40.5052 191.455 39.9297 190.857 39.3984C190.259 38.8672 189.396 38.3359 188.267 37.8047C187.16 37.2513 185.699 36.6758 183.884 36.0781C181.759 35.3698 179.712 34.5729 177.742 33.6875C175.772 32.7799 174.012 31.7285 172.462 30.5332C170.913 29.3158 169.684 27.8991 168.777 26.2832C167.869 24.6452 167.415 22.7415 167.415 20.5723C167.415 18.4915 167.88 16.6211 168.81 14.9609C169.74 13.2786 171.035 11.8509 172.695 10.6777C174.377 9.48242 176.347 8.57487 178.605 7.95508C180.863 7.31315 183.331 6.99219 186.009 6.99219C189.551 6.99219 192.672 7.61198 195.372 8.85156C198.095 10.069 200.22 11.8066 201.747 14.0645C203.297 16.3001 204.072 18.9453 204.072 22H192.484C192.484 20.7826 192.229 19.709 191.72 18.7793C191.233 17.8496 190.492 17.1191 189.496 16.5879C188.499 16.0566 187.249 15.791 185.744 15.791C184.283 15.791 183.054 16.0124 182.058 16.4551C181.062 16.8978 180.309 17.4954 179.8 18.248C179.291 18.9785 179.037 19.7865 179.037 20.6719C179.037 21.4023 179.236 22.0664 179.634 22.6641C180.055 23.2396 180.641 23.7819 181.394 24.291C182.169 24.8001 183.098 25.2871 184.183 25.752C185.29 26.2168 186.529 26.6706 187.902 27.1133C190.47 27.9323 192.749 28.8509 194.742 29.8691C196.756 30.8652 198.449 32.0052 199.822 33.2891C201.216 34.5508 202.268 35.9896 202.976 37.6055C203.706 39.2214 204.072 41.0475 204.072 43.084C204.072 45.2533 203.651 47.179 202.81 48.8613C201.969 50.5436 200.762 51.9714 199.191 53.1445C197.619 54.2956 195.738 55.1699 193.546 55.7676C191.355 56.3652 188.909 56.6641 186.208 56.6641C183.729 56.6641 181.283 56.3542 178.871 55.7344C176.48 55.0924 174.311 54.1185 172.363 52.8125C170.415 51.4844 168.854 49.791 167.681 47.7324C166.53 45.6517 165.955 43.1836 165.955 40.3281H177.642C177.642 41.7448 177.83 42.9401 178.206 43.9141C178.583 44.888 179.136 45.6738 179.867 46.2715C180.597 46.847 181.494 47.2676 182.556 47.5332C183.619 47.7767 184.836 47.8984 186.208 47.8984C187.692 47.8984 188.887 47.6882 189.794 47.2676C190.702 46.8249 191.366 46.2493 191.787 45.541C192.207 44.8105 192.417 44.0137 192.417 43.1504ZM6.04297 72.6562H21.748C25.0905 72.6562 27.9902 73.1986 30.4473 74.2832C32.9043 75.3678 34.7969 76.9727 36.125 79.0977C37.4753 81.2005 38.1504 83.7904 38.1504 86.8672C38.1504 89.1471 37.6634 91.2168 36.6895 93.0762C35.7376 94.9355 34.4206 96.4961 32.7383 97.7578C31.056 98.9974 29.1081 99.8496 26.8945 100.314L25.4668 100.846H8.69922L8.63281 97.3594H22.6777C25.2012 97.3594 27.304 96.8724 28.9863 95.8984C30.6686 94.9245 31.9303 93.6406 32.7715 92.0469C33.6348 90.431 34.0664 88.7044 34.0664 86.8672C34.0664 84.6758 33.5905 82.7832 32.6387 81.1895C31.709 79.5736 30.3255 78.334 28.4883 77.4707C26.651 76.6074 24.4043 76.1758 21.748 76.1758H10.127V121H6.04297V72.6562ZM35.8926 121L23.375 99.3848L27.7578 99.3516L40.2422 120.568V121H35.8926ZM78.0619 117.514V121H50.8685V117.514H78.0619ZM52.097 72.6562V121H48.013V72.6562H52.097ZM74.6752 94.3379V97.8242H50.8685V94.3379H74.6752ZM77.8959 72.6562V76.1758H50.8685V72.6562H77.8959ZM113.325 117.514V121H88.2566V117.514H113.325ZM89.4519 72.6562V121H85.3679V72.6562H89.4519ZM149.916 117.514V121H122.723V117.514H149.916ZM123.951 72.6562V121H119.867V72.6562H123.951ZM146.529 94.3379V97.8242H122.723V94.3379H146.529ZM149.75 72.6562V76.1758H122.723V72.6562H149.75ZM173.093 75.5449L156.359 121H152.109L170.371 72.6562H173.326L173.093 75.5449ZM188.3 121L171.533 75.5449L171.3 72.6562H174.255L192.55 121H188.3ZM185.312 103.934V107.453H159.646V103.934H185.312ZM225.721 109.113C225.721 107.785 225.5 106.601 225.057 105.561C224.615 104.52 223.884 103.59 222.866 102.771C221.87 101.93 220.52 101.156 218.815 100.447C217.133 99.7168 215.03 98.9974 212.507 98.2891C210.094 97.6029 207.914 96.8503 205.966 96.0312C204.018 95.2122 202.346 94.2715 200.952 93.209C199.58 92.1465 198.528 90.9069 197.798 89.4902C197.067 88.0514 196.702 86.3802 196.702 84.4766C196.702 82.6172 197.1 80.9238 197.897 79.3965C198.694 77.8691 199.812 76.5521 201.251 75.4453C202.712 74.3385 204.427 73.4863 206.397 72.8887C208.389 72.291 210.57 71.9922 212.938 71.9922C216.325 71.9922 219.247 72.6341 221.704 73.918C224.183 75.2018 226.098 76.9395 227.448 79.1309C228.82 81.3001 229.507 83.735 229.507 86.4355H225.423C225.423 84.3327 224.925 82.4622 223.929 80.8242C222.955 79.1641 221.538 77.8691 219.679 76.9395C217.841 75.9876 215.595 75.5117 212.938 75.5117C210.282 75.5117 208.046 75.9212 206.231 76.7402C204.438 77.5371 203.077 78.6107 202.147 79.9609C201.24 81.2891 200.786 82.7721 200.786 84.4102C200.786 85.5612 201.007 86.6237 201.45 87.5977C201.893 88.5495 202.612 89.446 203.608 90.2871C204.626 91.1061 205.966 91.8809 207.626 92.6113C209.286 93.3197 211.333 93.9948 213.768 94.6367C216.336 95.3451 218.616 96.1309 220.608 96.9941C222.6 97.8574 224.283 98.8535 225.655 99.9824C227.027 101.089 228.068 102.384 228.776 103.867C229.485 105.35 229.839 107.077 229.839 109.047C229.839 111.017 229.418 112.788 228.577 114.359C227.758 115.909 226.596 117.226 225.091 118.311C223.608 119.395 221.848 120.225 219.811 120.801C217.797 121.376 215.595 121.664 213.204 121.664C211.057 121.664 208.921 121.387 206.796 120.834C204.671 120.281 202.723 119.428 200.952 118.277C199.203 117.104 197.798 115.599 196.735 113.762C195.695 111.924 195.175 109.733 195.175 107.188H199.225C199.225 109.224 199.635 110.939 200.454 112.334C201.273 113.729 202.358 114.857 203.708 115.721C205.08 116.584 206.585 117.215 208.223 117.613C209.884 117.99 211.544 118.178 213.204 118.178C215.749 118.178 217.952 117.801 219.811 117.049C221.693 116.296 223.143 115.245 224.161 113.895C225.201 112.522 225.721 110.928 225.721 109.113ZM267.36 117.514V121H240.166V117.514H267.36ZM241.395 72.6562V121H237.311V72.6562H241.395ZM263.973 94.3379V97.8242H240.166V94.3379H263.973ZM267.194 72.6562V76.1758H240.166V72.6562H267.194Z" fill="#41434A"/>
<line y1="143.5" x2="294" y2="143.5" stroke="#41434A"/>
</svg>
